<?xml version="1.0" encoding="UTF-8"?>
<svg id="Warstwa_5" xmlns="http://www.w3.org/2000/svg" version="1.1" viewBox="0 0 400 400">
  <!-- Generator: Adobe Illustrator 29.2.1, SVG Export Plug-In . SVG Version: 2.1.0 Build 116)  -->
  <defs>
    <style>
      .st0 {
        fill: #fff;
      }
    </style>
  </defs>
  <path class="st0" d="M336.01,295.28h-33.36c.72-.88,1.43-1.77,2.13-2.66h-33.36c1.35-1.73,2.66-3.5,3.94-5.29H27.83c4.22,5.93,8.85,11.54,13.86,16.79h219.81c.42-.44.83-.88,1.24-1.32h33.36c.2-.22.4-.45.6-.67h33.36c.21-.22.41-.45.61-.68h33.36c1.04-1.14,2.07-2.29,3.07-3.46h-33.36c.76-.89,1.51-1.8,2.25-2.71Z"/>
  <path class="st0" d="M217.68,63.95h33.36c-2.25-1.09-4.52-2.13-6.83-3.11h33.36c-2.67-1.13-5.37-2.18-8.12-3.16h33.36c-3.6-1.28-7.25-2.45-10.97-3.46h-33.36c-.28-.08-.56-.15-.84-.23h-33.36c-.3-.08-.6-.14-.9-.22h-33.36c-.59-.15-1.19-.29-1.79-.44h-73.39c-14.56,3.61-28.29,9.32-40.84,16.79h155.13c-3.72-2.21-7.55-4.27-11.47-6.17Z"/>
  <path class="st0" d="M250.74,85.67h33.36c-1.13-.97-2.27-1.94-3.42-2.88h33.36c-1.23-1-2.46-1.98-3.72-2.94h33.36c-1.56-1.19-3.14-2.33-4.74-3.46h-33.36c-.21-.15-.41-.31-.62-.45h-33.36c-.21-.15-.43-.3-.65-.44h-33.36c-.44-.3-.89-.58-1.33-.88H66.92c-7.41,4.98-14.36,10.61-20.76,16.79h210.88c-2.04-1.97-4.15-3.87-6.31-5.73Z"/>
  <path class="st0" d="M271.42,107.38h33.36c-.7-.9-1.41-1.78-2.13-2.66h33.36c-.74-.91-1.49-1.82-2.25-2.71h33.36c-1-1.17-2.03-2.32-3.07-3.46h-33.36c-.2-.23-.41-.45-.61-.68h-33.36c-.2-.22-.4-.45-.6-.67h-33.36c-.41-.44-.83-.88-1.24-1.32H41.69c-5.01,5.25-9.64,10.86-13.86,16.79h247.52c-1.27-1.79-2.59-3.55-3.94-5.29Z"/>
  <path class="st0" d="M125.34,129.09h33.36c2.6-.96,5.27-1.77,8-2.44h3.2c6.56,1.62,12.78,4.09,18.55,7.29h99.58c-.8-1.63-1.63-3.25-2.49-4.85h33.36c-.44-.82-.87-1.63-1.32-2.44h33.36c-.47-.84-.96-1.66-1.44-2.49h33.36c-.68-1.16-1.36-2.32-2.07-3.46h-33.36c-.19-.3-.39-.6-.58-.9h-33.36c-.19-.3-.38-.59-.57-.89h-33.36c-.38-.59-.74-1.18-1.12-1.76H24.77c-3.54,5.37-6.74,10.97-9.58,16.79h99.6c3.37-1.87,6.89-3.5,10.55-4.85Z"/>
  <path class="st0" d="M80.98,172.52h33.36c.26-.67.51-1.34.79-2h33.36c.29-.69.61-1.36.92-2.03h33.36c.54-1.17,1.11-2.32,1.7-3.46h-33.36c.24-.45.47-.91.72-1.36h-33.36c.25-.45.51-.89.77-1.33h-33.36c.52-.89,1.05-1.77,1.6-2.64H5.43c-1.52,5.48-2.74,11.08-3.63,16.79h77.75c.44-1.34.92-2.66,1.43-3.97Z"/>
  <path class="st0" d="M76.03,194.23h33.36c.04-.59.08-1.19.14-1.78h33.36c.06-.61.15-1.21.22-1.81h33.36c.14-1.16.31-2.32.51-3.46h-33.36c.09-.53.18-1.06.28-1.58h-33.36c.1-.52.2-1.04.32-1.55h-33.36c.22-1.03.46-2.07.72-3.08H1.16c-.69,5.51-1.08,11.11-1.16,16.79h75.85c.03-1.18.1-2.36.18-3.52Z"/>
  <path class="st0" d="M77.5,215.95h33.36c-.11-.52-.22-1.03-.32-1.55h33.36c-.1-.52-.19-1.05-.28-1.58h33.36c-.2-1.15-.36-2.3-.51-3.46h-33.36c-.07-.6-.16-1.2-.22-1.81h-33.36c-.06-.59-.09-1.18-.14-1.78h-33.36c-.09-1.17-.15-2.34-.18-3.52H0c.08,5.68.47,11.28,1.16,16.79h77.05c-.27-1.02-.5-2.05-.72-3.08Z"/>
  <path class="st0" d="M85.89,237.66h33.36c-.26-.44-.52-.88-.77-1.33h33.36c-.25-.45-.48-.9-.72-1.36h33.36c-.6-1.14-1.16-2.29-1.7-3.46h-33.36c-.31-.68-.63-1.35-.92-2.03h-33.36c-.28-.66-.53-1.33-.79-2h-33.36c-.51-1.31-.99-2.63-1.43-3.97H1.8c.9,5.71,2.11,11.31,3.63,16.79h82.05c-.55-.87-1.08-1.75-1.6-2.64Z"/>
  <path class="st0" d="M314.04,317.22h-33.36c1.16-.94,2.29-1.91,3.42-2.88h-33.36c2.15-1.86,4.26-3.76,6.31-5.73H46.16c6.4,6.18,13.35,11.8,20.76,16.79h169.32c.44-.3.89-.58,1.33-.88h33.36c.22-.15.43-.29.65-.44h33.36c.21-.15.41-.3.62-.45h33.36c1.6-1.13,3.19-2.28,4.74-3.46h-33.36c1.26-.96,2.5-1.94,3.72-2.94Z"/>
  <path class="st0" d="M277.57,339.15h-33.36c2.31-.98,4.58-2.02,6.83-3.11h-33.36c3.92-1.9,7.75-3.95,11.47-6.17H74.02c12.55,7.47,26.28,13.18,40.84,16.79h73.39c.6-.15,1.19-.29,1.78-.44h33.36c.3-.08.6-.14.9-.22h33.36c.28-.07.56-.15.84-.23h33.36c3.72-1.01,7.37-2.18,10.97-3.46h-33.36c2.74-.98,5.45-2.03,8.12-3.16Z"/>
  <path class="st0" d="M94.08,150.81h33.36c.65-.75,1.3-1.49,1.98-2.22h33.36c.71-.77,1.44-1.52,2.18-2.26h33.36c1.07-1.06,2.19-2.08,3.33-3.08,4.08,3.58,7.78,7.59,11.01,11.96h83.79c-.46-1.47-.91-2.95-1.41-4.41h33.36c-.26-.75-.55-1.48-.82-2.22h33.36c-.27-.76-.55-1.51-.83-2.26h33.36c-.44-1.16-.9-2.31-1.37-3.46h-33.36c-.15-.38-.32-.75-.47-1.13h-33.36c-.16-.37-.31-.74-.47-1.11h-33.36c-.31-.73-.62-1.47-.94-2.2h-94.57c1.96,1.39,3.84,2.88,5.65,4.44h-32.47c.44-.38.86-.76,1.31-1.13h-33.36c.46-.38.94-.74,1.41-1.11h-33.36c.96-.76,1.95-1.49,2.95-2.2H13.09c-2.44,5.43-4.56,11.04-6.35,16.79h83.81c1.12-1.52,2.3-2.98,3.53-4.41Z"/>
  <path class="st0" d="M365.55,163.67h-33.36c-.11-.45-.23-.89-.35-1.33h-33.36c-.23-.89-.48-1.76-.72-2.64h-82.03c2.03,3.2,3.83,6.57,5.37,10.07h145.83c-.09-.43-.2-.85-.29-1.28h33.36c-.25-1.16-.51-2.31-.78-3.46h-33.36c-.11-.45-.2-.91-.31-1.36Z"/>
  <path class="st0" d="M366.93,230.23h-145.83c-1.54,3.51-3.34,6.87-5.37,10.07h82.03c.24-.88.49-1.76.72-2.64h33.36c.11-.44.24-.89.35-1.33h33.36c.11-.45.2-.91.31-1.36h33.36c.27-1.15.54-2.3.78-3.46h-33.36c.09-.43.2-.85.29-1.28Z"/>
  <path class="st0" d="M360.93,251.41h-33.36c.27-.74.56-1.47.82-2.22h-33.36c.5-1.45.96-2.93,1.41-4.41h-83.79c-3.23,4.37-6.93,8.38-11.01,11.96-1.14-1-2.25-2.02-3.33-3.08h-33.36c-.75-.74-1.47-1.49-2.18-2.26h-33.36c-.68-.73-1.33-1.47-1.98-2.22h-33.36c-1.23-1.43-2.41-2.89-3.53-4.41H6.74c1.79,5.75,3.92,11.35,6.35,16.79h94.59c-1-.71-1.98-1.45-2.95-2.2h33.36c-.47-.37-.95-.73-1.41-1.11h33.36c-.44-.37-.87-.75-1.31-1.13h32.47c-1.81,1.57-3.7,3.05-5.65,4.44h94.57c.33-.73.63-1.47.94-2.2h33.36c.16-.37.31-.74.47-1.11h33.36c.16-.38.32-.75.47-1.13h33.36c.47-1.15.93-2.3,1.37-3.46h-33.36c.29-.75.56-1.5.83-2.26Z"/>
  <path class="st0" d="M350.93,273.35h-33.36c.45-.81.88-1.63,1.32-2.44h-33.36c.85-1.6,1.69-3.21,2.49-4.85h-99.58c-5.76,3.2-11.99,5.67-18.55,7.29h-3.2c-2.73-.67-5.4-1.48-8-2.44h-33.36c-3.66-1.35-7.18-2.98-10.55-4.85H15.19c2.84,5.82,6.05,11.42,9.58,16.79h253.66c.38-.58.75-1.18,1.12-1.76h33.36c.19-.3.38-.59.57-.89h33.36c.19-.3.39-.6.58-.9h33.36c.71-1.14,1.39-2.3,2.07-3.46h-33.36c.48-.83.97-1.65,1.44-2.49Z"/>
</svg>