<?xml version="1.0" encoding="UTF-8"?>
<svg id="Warstwa_1" xmlns="http://www.w3.org/2000/svg" version="1.1" viewBox="0 0 200 119.3">
  <!-- Generator: Adobe Illustrator 29.2.1, SVG Export Plug-In . SVG Version: 2.1.0 Build 116)  -->
  <defs>
    <style>
      .st0 {
        fill: #18181b;
      }
    </style>
  </defs>
  <path class="st0" d="M1.6,37.7c0-6.4,4.2-11.1,10.5-11.1s7.5,2.1,9.2,5.8l-3.1,1.5c-1.1-2.5-3.2-4-6.1-4-4.2,0-6.9,3.4-6.9,7.9s2.6,7.9,6.9,7.9,4.9-1.6,6.1-4.1l3.1,1.5c-1.7,3.7-4.9,5.9-9.2,5.9-6.3,0-10.5-4.8-10.5-11.2Z"/>
  <path class="st0" d="M23.5,37.8c0-6.3,3.7-11,9.5-11s5.7,1.5,7.2,4.3h.3c0-1.4,0-2.4,0-3.9h3.5v21.1h-3.5c0-1.5,0-2.5,0-3.9h-.3c-1.6,2.9-4.2,4.3-7.4,4.3-5.8,0-9.4-4.7-9.4-11h0ZM40.6,37.7c0-4.6-2.7-7.8-6.9-7.8s-6.6,3.4-6.6,7.9,2.5,7.7,6.6,7.7,6.9-3.2,6.9-7.8h0Z"/>
  <path class="st0" d="M49.4,27.2h3.6c0,1.4,0,2.4,0,3.8h.2c1.2-2.6,3.5-4,6.3-4s.7,0,1.2,0v3.3c-.6,0-1.1,0-1.7,0-3.9,0-6,2.6-6,6.3v11.6h-3.6v-21.1h0Z"/>
  <path class="st0" d="M67.5,44.4h-.2c0,1.4,0,2.4,0,3.9h-3.6v-30.8h3.6v8.7c0,2,0,3-.1,4.9h.2c1.6-2.9,4.2-4.4,7.4-4.4,5.7,0,9.3,4.8,9.3,11s-3.7,11-9.5,11-5.7-1.4-7.2-4.3h0ZM80.6,37.7c0-4.4-2.5-7.7-6.6-7.7s-6.9,3.2-6.9,7.8,2.6,7.8,6.9,7.8c4.1,0,6.6-3.4,6.6-7.8Z"/>
  <path class="st0" d="M87.5,37.7c0-6.4,4.2-11.1,10.5-11.1s10.5,4.7,10.5,11.1-4.2,11.1-10.5,11.1-10.5-4.7-10.5-11.1ZM104.9,37.7c0-4.4-2.6-7.9-6.9-7.9s-6.9,3.4-6.9,7.9,2.7,7.9,6.9,7.9,6.9-3.5,6.9-7.9Z"/>
  <path class="st0" d="M112.8,27.2h3.6c0,1.4,0,2.4,0,3.7h.2c1.4-2.7,3.8-4.2,6.8-4.2,5.1,0,7.6,3.5,7.6,8.6v13h-3.6v-12.2c0-3.8-1.7-6.2-5.3-6.2s-5.6,2.8-5.6,6.3v12h-3.6v-21.1h0Z"/>
  <path class="st0" d="M136.2,17.5h3.6v30.8h-3.6v-30.8Z"/>
  <path class="st0" d="M144.1,37.7c0-6.4,4.1-11.1,10.2-11.1s9.6,4.3,9.6,10.6,0,.8,0,1.3h-16.2c.3,4.1,2.8,7.1,6.8,7.1s4.8-1.4,6.1-3.8l3,1.5c-1.9,3.7-5,5.6-9.2,5.6-6.1,0-10.2-4.7-10.2-11.1h0ZM160.5,35.7c-.4-3.6-2.5-6-6.1-6s-5.9,2.5-6.6,6h12.7,0Z"/>
  <path class="st0" d="M166.1,45.4l2.5-2.3c1.4,1.6,3.2,2.7,5.2,2.7s4.1-1.2,4.1-3.3-2-2.8-4.3-3.4c-3.4-1-6.5-2.4-6.5-6.2s3.1-6.2,7.2-6.2,4.8.9,6.5,2.8l-2.4,2.3c-1.1-1.3-2.5-2-4.1-2s-3.8,1.1-3.8,3.1,2,2.6,4.2,3.3c3.5,1,6.6,2.3,6.6,6.3s-3.2,6.5-7.6,6.5-5.7-1.3-7.6-3.4h0Z"/>
  <path class="st0" d="M183.5,45.4l2.5-2.3c1.4,1.6,3.2,2.7,5.2,2.7s4.1-1.2,4.1-3.3-2-2.8-4.3-3.4c-3.4-1-6.5-2.4-6.5-6.2s3.1-6.2,7.2-6.2,4.8.9,6.5,2.8l-2.4,2.3c-1.1-1.3-2.5-2-4.1-2s-3.8,1.1-3.8,3.1,2,2.6,4.2,3.3c3.5,1,6.6,2.3,6.6,6.3s-3.2,6.5-7.6,6.5-5.7-1.3-7.6-3.4h0Z"/>
  <path class="st0" d="M2.7,69.7h3.6c0,1.4,0,2.5,0,3.9h.2c1.6-2.8,4.2-4.4,7.4-4.4,5.7,0,9.3,4.8,9.3,11s-3.7,11.1-9.5,11.1-5.7-1.4-7.2-4.3h-.2c.1,1.7.1,3.1.1,4.8v8h-3.6v-30.1h0ZM19.6,80.2c0-4.4-2.5-7.8-6.6-7.8s-6.9,3.2-6.9,7.8,2.7,7.8,6.9,7.8c4.1,0,6.6-3.4,6.6-7.8Z"/>
  <path class="st0" d="M27.4,69.7h3.6c0,1.4,0,2.4,0,3.8h.2c1.2-2.6,3.5-4,6.3-4s.7,0,1.2,0v3.3c-.6,0-1.1,0-1.7,0-3.9,0-6,2.6-6,6.3v11.7h-3.6v-21.1h0Z"/>
  <path class="st0" d="M39.7,80.2c0-6.4,4.2-11.1,10.5-11.1s10.5,4.7,10.5,11.1-4.2,11.1-10.5,11.1-10.5-4.7-10.5-11.1ZM57.1,80.2c0-4.4-2.6-7.9-6.9-7.9s-6.9,3.4-6.9,7.9,2.7,7.9,6.9,7.9,6.9-3.5,6.9-7.9Z"/>
  <path class="st0" d="M64.3,64.2c0-1.4,1-2.4,2.5-2.4s2.5,1,2.5,2.4-1,2.4-2.5,2.4-2.5-1-2.5-2.4ZM64.9,69.7h3.6v30.1h-3.6v-30.1Z"/>
  <path class="st0" d="M72.8,80.2c0-6.4,4.1-11.1,10.2-11.1s9.6,4.3,9.6,10.6,0,.8,0,1.3h-16.2c.3,4.1,2.8,7.1,6.8,7.1s4.8-1.4,6.1-3.8l3,1.4c-1.9,3.7-5,5.6-9.2,5.6-6.1,0-10.2-4.7-10.2-11.1h0ZM89.2,78.2c-.4-3.6-2.5-6-6.1-6s-5.9,2.5-6.6,6h12.7Z"/>
  <path class="st0" d="M100.3,80.5v10.3h-3.6v-30.8h3.6v19.3l9.1-9.7h4.3v.2l-9.6,9.8,10,10.9v.2h-4.6l-9.3-10.3h0Z"/>
  <path class="st0" d="M119.5,72.9h-3.4v-3.2h3.4v-5.9h3.6v5.9h5.2v3.2h-5.2v17.8h-3.6s0-17.8,0-17.8Z"/>
</svg>